<svg viewBox="-2017 843 43 43" xmlns="http://www.w3.org/2000/svg"><path d="M-1989.795 855.149a4.885 4.885 0 0 0-2.258.66c-.668.408-1.186 1.127-1.205 1.929-.048.738.276 1.44.618 2.066a1.666 1.666 0 0 1-.702.034c-.33-.073-.519-.386-.638-.677-.079-.142-.263-.072-.316.054-.177.289-.309.619-.279.963-.005.482.214.936.496 1.315.206.268.49.471.676.754.208.355.218.787.122 1.179-.096.419-.282.872-.675 1.092-.512.256-1.169.073-1.52-.367a1.538 1.538 0 0 1-.361-1.308c.033-.238.147-.451.236-.67.034-.157-.161-.239-.277-.153-.616.271-1.183.7-1.51 1.298-.069.162-.161.314-.223.477a7.28 7.28 0 0 0-.035 1.295c.095.829.54 1.597 1.184 2.121.68.578 1.5.999 2.38 1.162.537.106 1.112.208 1.529.594.28.24.465.566.636.885.089.13.271.033.29-.102.123-.28.306-.557.599-.681.57-.31 1.232-.378 1.818-.648.846-.35 1.395-1.192 1.592-2.06a2.613 2.613 0 0 0-.151-1.668c-.247-.592-.582-1.174-1.095-1.573-.144-.079-.288.114-.196.24.164.312.3.65.28 1.009.013.422-.184.87-.519 1.14-.182.143-.474.297-.682.115-.206-.177-.155-.48-.174-.722.037-.454.383-.79.594-1.17.236-.373.37-.814.322-1.257-.025-.242-.086-.508-.275-.675-.153-.055-.243.117-.21.248.003.194-.102.417-.29.492-.167.01-.367.05-.495-.09-.26-.214-.21-.627-.042-.883.126-.176.344-.31.566-.25.153.048.278-.122.193-.256-.213-.746-.757-1.333-1.172-1.966-.454-.622-.67-1.446-.424-2.192.04-.316.245-.578.467-.795.373-.354.86-.572 1.364-.66.165-.038.139-.295-.03-.297-.07-.001-.139-.003-.208-.002z" fill="#f60"/><path d="M-2005.7 853l.7 3h-12s.2.9.3 1c.3.5.6 1.1 1 1.5 1.9 2.2 5.2 3.1 7.9 3.6 1.9.4 3.8.5 5.7.6l2.2 5.9h1.2l.7 1.9h-1l-1.7 5.5h16.7l-1.7-5.5h-1l.7-1.9h1.2s1-6.1 4.1-8.9c3-2.8 6.7-3.2 6.7-3.2V853zm16.8 15.1c-.8.5-1.7.5-2.3.9-.4.2-.6.8-.6.8-.4-.9-.9-1.2-1.5-1.4-.6-.2-1.7-.1-3.2-1.4-1-.9-1.1-2.1-1-2.7v-.1-.2c0-.1 0-.2.1-.3.2-.6.7-1.2 1.7-1.6 0 0-.7 1 0 2 .4.6 1.2.9 1.9.5.3-.2.5-.6.6-.9.2-.7.2-1.4-.4-1.9-.9-.8-1.1-1.9-.5-2.6 0 0 .2.9 1.1.8.6 0 .6-.2.4-.4-.1-.3-1.4-2.2.5-3.6 0 0 1.2-.8 2.6-.7-.8.1-1.7.6-2 1.4v.1c-.3.8-.1 1.7.5 2.5.4.6.9 1.1 1.1 1.9-.3-.1-.5 0-.7.2-.2.2-.3.6-.2.9.1.2.3.4.5.4H-1990c.3-.1.5-.5.4-.8.2.2.3.7.2 1 0 .3-.2.6-.3.8-.1.2-.3.4-.4.6-.1.2-.2.4-.2.6 0 .2 0 .5.1.7.4.6 1.2 0 1.4-.5.3-.6.2-1.3-.2-1.9 0 0 .7.4 1.2 1.8.4 1.2-.3 2.6-1.1 3.1z" fill="#404040"/></svg>
