<svg width="90" height="90" xmlns="http://www.w3.org/2000/svg">
 <style type="text/css">.st1{fill:#26303d;}</style>

 <g>
  <title>background</title>
  <rect fill="none" id="canvas_background" height="92" width="92" y="-1" x="-1"/>
 </g>
 <g>
  <title>Layer 1</title>
  <g id="svg_1">
   <path id="svg_2" d="m80.600014,28.400024l-37.800018,-1.900024l46.200012,0l0,-3.700012l-52.200012,0l0,7.800018l0,6.199982c0,0.100037 -1.5,-9.099976 -1.900009,-11.699982l-4.099993,0l0,6.800018l0,6.199982c0,0.100006 -1.800001,-10.899994 -1.900007,-12.300018c-10.399994,0 -27.899994,0 -27.899994,0c1.900009,1.600006 12.400011,10.600037 19.899994,14.300018c3.700012,1.799988 8.300003,1.899994 12.400009,2c2.099991,0.100006 4.199997,0.199982 5.800003,1.800018c2.299988,2.199982 2.799988,5.699982 0.799988,8.299988c-1.899994,2.599976 -7.299988,3.200012 -7.299988,3.200012l-4.600006,5.399963l0,6.400024l10.300003,0l0.300003,-6.299988l8.899994,-6.300018c-0.899994,0.800018 -3.100006,2.800018 -6.199997,7.699982c-0.699997,1.100006 -1.300003,2.300018 -1.699997,3.5c2.199997,-1.899994 6.799988,-3.199982 12.200001,-3.199982c5.300003,0 9.899994,1.299988 12.099995,3.199982c-0.399994,-1.199982 -1,-2.399994 -1.699997,-3.5c-3.200001,-4.899963 -5.300007,-6.899963 -6.200001,-7.699982l8.900005,6.300018l0.300003,6.299988l9.600006,0l0,-6.400024l-4.5,-5.5c0,0 -6.700005,-0.399963 -8.400021,-3.199982c-5.199997,-7.800018 1.900013,-20 18.700024,-23.699982z" class="st1"/>
  </g>
 </g>
</svg>
