<?xml version="1.0" standalone="no"?>
<svg version="1.0" xmlns="http://www.w3.org/2000/svg"
 width="260.000000pt" height="260.000000pt" viewBox="0 0 260.000000 260.000000"
 preserveAspectRatio="xMidYMid meet">
<g><title>background</title>
<rect fill="#1d2d41" id="canvas_background" height="260" width="260" y="-1" x="-1"/>
</g>
<g transform="translate(0.000000,260.000000) scale(0.100000,-0.100000)"
fill="#ffffff" stroke="none">
<path d="M1017 1773 c-2 -5 -3 -68 -2 -141 0 -73 -2 -135 -5 -137 -3 -2 -7 8
-8 23 -1 15 -9 65 -17 112 -8 47 -15 88 -15 91 0 3 -24 5 -52 5 l-53 -2 0
-117 c1 -64 -3 -117 -7 -117 -4 0 -8 8 -9 18 0 9 -3 28 -5 42 -7 39 -24 144
-24 150 0 3 -155 5 -345 5 -190 0 -345 -2 -345 -6 0 -14 249 -208 361 -281
148 -96 196 -110 436 -122 46 -3 95 -12 112 -20 43 -23 74 -71 78 -125 8 -87
-47 -146 -162 -172 -45 -10 -56 -19 -105 -80 l-55 -69 -1 -80 -1 -80 132 0
131 0 2 67 c1 37 4 74 7 83 3 8 43 41 89 72 l84 57 -57 -77 c-56 -74 -111
-169 -94 -160 112 55 184 71 308 71 96 0 195 -21 258 -53 20 -11 37 -17 37
-14 0 23 -92 165 -135 208 -36 36 -7 22 65 -31 41 -30 79 -59 84 -63 9 -9 13
-48 15 -127 l1 -33 123 0 123 0 -1 78 c0 84 -5 95 -69 167 -20 22 -36 43 -36
46 0 3 -30 11 -68 18 -137 24 -187 80 -187 207 0 60 5 80 33 135 38 75 100
142 178 194 68 45 166 90 230 106 68 16 72 24 11 25 -58 1 -286 11 -452 20
-61 3 -131 7 -158 8 -26 2 -49 5 -51 7 -3 2 204 4 460 4 l464 0 0 47 0 48
-649 0 c-358 0 -652 -3 -654 -7z m363 -89 c0 -8 -19 -13 -24 -6 -3 5 1 9 9 9
8 0 15 -2 15 -3z"/>
</g>
</svg>
